# xmcd
#
# Track frame offsets:
#        150
#        17936
#        34446
#        48871
#        65101
#        80322
#        106262
#        122665
#        141615
#        157319
#        181829
#        207083
#        227863
#        245106
#
# Disc length: 3535 seconds
#
# Revision: 2
# Processed by: cddbd v1.5.1PL0 Copyright (c) Steve Scherf et al.
# Submitted via: ExactAudioCopy v0.95b2
#
DISCID=cf0dcd0e
DTITLE=Keane - Hopes And Fears [Bonus Tracks]
DYEAR=2004
DGENRE=Rock
TTITLE0=Somewhere Only We Know
TTITLE1=Bend And Break
TTITLE2=We Might As Well Be Strangers
TTITLE3=Everybody's Changing
TTITLE4=Your Eyes Open
TTITLE5=She Has No Time
TTITLE6=Can't Stop Now
TTITLE7=Sunshine
TTITLE8=This Is The Last Time
TTITLE9=On A Day Like Today
TTITLE10=Untitled 1
TTITLE11=Bedshaped
TTITLE12=Snowed Under
TTITLE13=Allemende
EXTD=YEAR: 2004
EXTT0=
EXTT1=
EXTT2=
EXTT3=
EXTT4=
EXTT5=
EXTT6=
EXTT7=
EXTT8=
EXTT9=
EXTT10=
EXTT11=
EXTT12=
EXTT13=
PLAYORDER=
